#!OML:ASF E:\Steps\Project 1\Capture day 1\Session 2\Subject.ASF
:FULLY-SPECIFIED
:DEGREES
462
root 8.91426 16.3106 19.1708 -10.0039 -87.2547 37.1799
lowerback -30.4467 -2.45537 -5.94961
upperback -3.86937 -1.66616 0.0935307
thorax 11.7316 -1.19527 2.64694
lowerneck 0.640498 0.887729 -14.3201
upperneck 6.06657 0.314463 17.5637
head 1.55109 0.120039 7.82159
rclavicle 2.22639e-014 1.78906e-014
rhumerus -34.2589 -23.3575 -77.0024
rradius 22.3537
rwrist 10.6193
rhand -7.4041 -48.5992
rfingers 7.12502
rthumb 18.4821 -77.7412
lclavicle 2.22639e-014 1.78906e-014
lhumerus -26.1281 0.509444 89.4151
lradius 22.8959
lwrist -3.72214
lhand -25.7454 -13.5707
lfingers 7.12502
lthumb 0.791679 16.4076
rfemur -24.0649 8.12279 17.5726
rtibia 8.65835
rfoot -20.4558 -12.211
rtoes -27.7825
lfemur -26.1019 -11.2707 -17.9606
ltibia 7.6344
lfoot -6.15792 -4.37274
ltoes -27.9562
463
root 8.91434 16.3085 19.167 -10.8969 -87.3635 38.1212
lowerback -30.5185 -2.46803 -5.88982
upperback -3.8937 -1.70456 0.11435
thorax 11.7381 -1.21193 2.62064
lowerneck 0.624452 0.895553 -14.223
upperneck 6.10114 0.326668 17.4702
head 1.56291 0.127502 7.7738
rclavicle 1.18277e-014 -2.18663e-014
rhumerus -34.3902 -23.9053 -76.6997
rradius 22.2801
rwrist 10.9877
rhand -7.95252 -48.8954
rfingers 7.12502
rthumb 17.9545 -78.0867
lclavicle 1.18277e-014 -2.18663e-014
lhumerus -26.2355 0.18297 89.5214
lradius 23.201
lwrist -3.70955
lhand -25.6717 -13.5172
lfingers 7.12502
lthumb 0.862803 16.4608
rfemur -24.1419 8.24487 17.5847
rtibia 8.67306
rfoot -20.4631 -12.1806
rtoes -27.8081
lfemur -26.1739 -11.1835 -17.93
ltibia 7.64072
lfoot -6.12742 -4.32271
ltoes -27.9696
464
root 8.91402 16.3084 19.1643 -12.9995 -87.4314 40.1328
lowerback -30.4594 -2.48168 -5.88997
upperback -3.88044 -1.72378 0.108323
thorax 11.7293 -1.22029 2.60845
lowerneck 0.633356 0.906547 -14.0957
upperneck 6.13175 0.339698 17.378
head 1.56928 0.134666 7.72098
rclavicle -1.48343e-014 -3.55825e-014
rhumerus -34.3277 -24.0065 -76.597
rradius 22.0652
rwrist 10.7956
rhand -8.77991 -49.4563
rfingers 7.12502
rthumb 17.1583 -78.7187
lclavicle -1.48343e-014 -3.55825e-014
lhumerus -26.3169 -0.233816 89.6213
lradius 23.4426
lwrist -3.5533
lhand -25.6804 -13.6886
lfingers 7.12502
lthumb 0.85439 16.2895
rfemur -24.0403 8.37497 17.5267
rtibia 8.63875
rfoot -20.444 -12.1483
rtoes -27.6975
lfemur -26.0612 -11.2492 -17.9613
ltibia 7.61713
lfoot -6.11021 -4.15805
ltoes -27.7551
465
root 8.91624 16.3091 19.1624 -14.6418 -87.4939 41.6341
lowerback -30.3276 -2.47019 -5.8738
upperback -3.84844 -1.72168 0.140168
thorax 11.7102 -1.21753 2.63829
lowerneck 0.613453 0.876049 -14.0294
upperneck 6.16011 0.299419 17.3124
head 1.58827 0.116031 7.68776
rclavicle -5.96354e-015 -2.127e-014
rhumerus -34.2476 -24.2562 -76.3202
rradius 21.8086
rwrist 10.7581
rhand -9.53242 -49.5487
rfingers 7.12502
rthumb 16.4339 -78.8726
lclavicle -5.96354e-015 -2.127e-014
lhumerus -26.3278 -0.803319 89.8386
lradius 23.6473
lwrist -3.21108
lhand -25.7606 -13.8108
lfingers 7.12502
lthumb 0.776989 16.1675
rfemur -23.8862 8.19392 17.5576
rtibia 8.57978
rfoot -20.3789 -11.8794
rtoes -27.7306
lfemur -25.9012 -11.4559 -17.9326
ltibia 7.61834
lfoot -6.10015 -3.8863
ltoes -28.0401
466
root 8.91788 16.3109 19.1613 -16.7679 -87.5156 43.6062
lowerback -30.2236 -2.50301 -5.91752
upperback -3.77654 -1.75312 0.183112
thorax 11.7521 -1.23382 2.69835
lowerneck 0.520989 0.848964 -13.9241
upperneck 6.19589 0.272441 17.2259
head 1.6199 0.107876 7.64123
rclavicle -4.99446e-015 -4.57205e-015
rhumerus -34.2146 -24.9219 -75.9014
rradius 21.6237
rwrist 11.2608
rhand -10.7571 -49.3068
rfingers 7.12502
rthumb 15.2545 -78.7244
lclavicle -4.99446e-015 -4.57205e-015
lhumerus -26.3234 -1.17715 90.0061
lradius 23.8757
lwrist -3.09901
lhand -25.8071 -13.8437
lfingers 7.12502
lthumb 0.732091 16.1347
rfemur -23.931 7.75519 17.6109
rtibia 8.97619
rfoot -20.6044 -11.3982
rtoes -27.8809
lfemur -25.7462 -11.6865 -17.9609
ltibia 7.6804
lfoot -6.11625 -3.66453
ltoes -28.2551
467
root 8.91545 16.3117 19.1591 -18.5018 -87.5931 45.2033
lowerback -30.2192 -2.52814 -5.91191
upperback -3.68405 -1.77844 0.18132
thorax 11.8568 -1.24658 2.68325
lowerneck 0.43742 0.852858 -13.7452
upperneck 6.21343 0.288311 17.1204
head 1.63818 0.121479 7.57531
rclavicle -5.7896e-015 1.80894e-014
rhumerus -34.201 -25.3827 -75.741
rradius 21.6077
rwrist 11.5094
rhand -8.91961 -50.1104
rfingers 7.12502
rthumb 17.0238 -79.3845
lclavicle -5.7896e-015 1.80894e-014
lhumerus -26.298 -1.47345 90.0113
lradius 24.0201
lwrist -3.13643
lhand -25.7975 -13.8888
lfingers 7.12502
lthumb 0.741319 16.0897
rfemur -23.7272 7.88076 17.6083
rtibia 8.86655
rfoot -20.5877 -11.3756
rtoes -27.9322
lfemur -25.5864 -11.8122 -17.9606
ltibia 7.72865
lfoot -6.23429 -3.45118
ltoes -28.7867
468
root 8.91161 16.3111 19.1563 -19.8447 -87.7293 46.5087
lowerback -30.287 -2.51432 -5.85404
upperback -3.65553 -1.77406 0.183606
thorax 11.9172 -1.24376 2.65413
lowerneck 0.434214 0.852153 -13.6633
upperneck 6.22398 0.289088 17.048
head 1.64258 0.12254 7.53706
rclavicle -9.86469e-015 2.78299e-015
rhumerus -34.2545 -25.3492 -75.7509
rradius 21.7273
rwrist 11.237
rhand -8.40012 -50.5668
rfingers 7.12502
rthumb 17.5238 -79.797
lclavicle -9.86469e-015 2.78299e-015
lhumerus -26.3446 -1.71447 90.0175
lradius 24.1113
lwrist -3.22475
lhand -25.714 -14.0313
lfingers 7.12502
lthumb 0.821977 15.9468
rfemur -23.7475 7.99208 17.654
rtibia 9.07637
rfoot -20.7142 -11.3534
rtoes -27.7589
lfemur -25.5201 -11.8936 -17.8807
ltibia 7.74813
lfoot -6.31499 -3.20268
ltoes -29.9596
469
root 8.90981 16.3106 19.1542 -22.1943 -87.8116 48.869
lowerback -30.3656 -2.51811 -5.81019
upperback -3.64321 -1.7893 0.186786
thorax 11.9656 -1.25054 2.62577
lowerneck 0.420215 0.845998 -13.6557
upperneck 6.25043 0.282263 16.9972
head 1.65418 0.119368 7.51933
rclavicle 8.77137e-015 1.43125e-014
rhumerus -34.2699 -25.4303 -75.6469
rradius 21.7233
rwrist 11.1714
rhand -8.85049 -50.4607
rfingers 7.12502
rthumb 17.0903 -79.729
lclavicle 8.77137e-015 1.43125e-014
lhumerus -26.4081 -1.81784 90.0331
lradius 24.2322
lwrist -3.37671
lhand -25.5708 -14.1212
lfingers 7.12502
lthumb 0.9603 15.8564
rfemur -23.7283 7.33889 17.7659
rtibia 8.84422
rfoot -20.4672 -10.6849
rtoes -28.2071
lfemur -25.536 -11.9968 -17.8592
ltibia 7.81102
lfoot -6.38335 -2.98845
ltoes -30.7976
470
root 8.91137 16.3096 19.1523 -24.7556 -87.8594 51.4982
lowerback -30.5093 -2.54457 -5.77247
upperback -3.60525 -1.82514 0.181976
thorax 12.0725 -1.26818 2.58208
lowerneck 0.363414 0.836775 -13.5596
upperneck 6.27574 0.275586 16.9237
head 1.67319 0.11943 7.47868
rclavicle -1.14301e-014 1.59028e-015
rhumerus -34.1472 -25.532 -75.5896
rradius 21.5949
rwrist 11.2062
rhand -10.45 -50.6943
rfingers 7.12502
rthumb 15.5502 -80.0891
lclavicle -1.14301e-014 1.59028e-015
lhumerus -26.3594 -1.90849 90.0187
lradius 24.2909
lwrist -3.54993
lhand -25.5801 -13.9904
lfingers 7.12502
lthumb 0.951336 15.9872
rfemur -23.7866 7.66604 17.5368
rtibia 8.74771
rfoot -20.8257 -10.1572
rtoes -24.5381
lfemur -25.6339 -11.994 -17.8843
ltibia 7.88584
lfoot -6.51963 -2.93301
ltoes -30.2244
471
root 8.9164 16.3054 19.1465 -26.5822 -87.867 53.5223
lowerback -30.7263 -2.60021 -5.81051
upperback -3.6149 -1.87583 0.184942
thorax 12.159 -1.29653 2.57962
lowerneck 0.352582 0.82453 -13.4421
upperneck 6.28704 0.260219 16.8505
head 1.68173 0.113349 7.43389
rclavicle -9.79014e-015 4.57205e-015
rhumerus -34.0745 -25.3695 -75.6324
rradius 21.5836
rwrist 11.2453
rhand -9.16244 -50.6067
rfingers 7.12502
rthumb 16.7901 -79.9008
lclavicle -9.79014e-015 4.57205e-015
lhumerus -26.3103 -2.0763 90
lradius 24.279
lwrist -3.62477
lhand -25.6997 -13.9759
lfingers 7.12502
lthumb 0.835799 16.0022
rfemur -24.085 7.56829 17.5299
rtibia 8.68923
rfoot -20.5422 -10.3146
rtoes -26.2574
lfemur -25.9178 -11.8413 -17.9067
ltibia 8.01138
lfoot -6.59347 -3.06933
ltoes -29.1553
472
root 8.91535 16.3067 19.1373 -29.1938 -87.9643 56.0404
lowerback -30.7094 -2.59193 -5.83232
upperback -3.57097 -1.85548 0.191799
thorax 12.2007 -1.28871 2.60672
lowerneck 0.3822 0.813896 -13.3723
upperneck 6.29558 0.242807 16.7949
head 1.68257 0.103815 7.40309
rclavicle 8.07563e-015 1.90833e-014
rhumerus -34.1471 -25.3326 -75.6096
rradius 21.719
rwrist 11.3173
rhand -9.03619 -51.0353
rfingers 7.12502
rthumb 16.9116 -80.3189
lclavicle 8.07563e-015 1.90833e-014
lhumerus -26.2916 -2.32677 89.9925
lradius 24.2396
lwrist -3.50807
lhand -25.5718 -14.0562
lfingers 7.12502
lthumb 0.959324 15.9214
rfemur -24.0258 7.41597 17.7249
rtibia 9.03999
rfoot -20.5682 -10.5068
rtoes -28.4046
lfemur -25.8015 -11.7405 -17.8968
ltibia 8.03693
lfoot -6.62379 -2.99641
ltoes -29.3325
473
root 8.91213 16.3079 19.1309 -33.5351 -88.0478 60.2647
lowerback -30.6747 -2.57161 -5.90237
upperback -3.51994 -1.8041 0.20273
thorax 12.2409 -1.26875 2.67662
lowerneck 0.381073 0.798682 -13.2621
upperneck 6.32235 0.221053 16.7176
head 1.69484 0.0940953 7.35844
rclavicle 9.24349e-015 -3.33958e-014
rhumerus -34.1945 -25.3627 -75.5394
rradius 21.7704
rwrist 11.111
rhand -9.02447 -51.0831
rfingers 7.12502
rthumb 16.9229 -80.3658
lclavicle 9.24349e-015 -3.33958e-014
lhumerus -26.2851 -2.47712 89.9974
lradius 24.2064
lwrist -3.48385
lhand -25.3134 -14.0413
lfingers 7.12502
lthumb 1.2089 15.935
rfemur -23.855 8.04014 17.501
rtibia 8.64191
rfoot -20.4364 -10.4841
rtoes -25.9718
lfemur -25.6607 -11.6896 -17.9418
ltibia 8.08599
lfoot -6.68148 -2.86084
ltoes -29.5591
